<svg version="1.1" xmlns="http://www.w3.org/2000/svg" xmlns:xlink="http://www.w3.org/1999/xlink" width="274.3624267578125" height="44.410003662109375"><defs></defs><g transform="translate(-143.4844512939453,24.932968139648438)"><rect fill="rgb(255,255,255)" stroke="none" x="0" y="0" width="274.3624267578125" height="44.410003662109375" fill-opacity="0" transform="translate(143.4844512939453,-24.932968139648438)"></rect><g transform="translate(137.18379709940598,22.20703125) rotate(0,0,0) translate(-137.18379709940598,-22.20703125) matrix(1,0,-0.19438030913771848,1,137.18379709940598,22.20703125)"><path fill="rgb(0,0,0)" fill-opacity="1" d="M38.61-22.37L38.61-22.37Q38.61-19.46 37.63-16.95Q36.66-14.43 35.01-12.33Q33.36-10.23 31.15-8.60Q28.95-6.97 26.48-5.85Q24.00-4.72 21.41-4.14Q18.82-3.55 16.39-3.55L16.39-3.55Q16.15-3.53 15.53-3.53Q14.91-3.53 14.09-3.52Q13.27-3.50 12.31-3.50Q11.35-3.50 10.43-3.50Q9.52-3.50 8.72-3.52Q7.93-3.53 7.41-3.55L7.41-3.55Q7.81-3.55 8.11-3.76Q8.42-3.97 8.64-4.32Q8.86-4.68 9.02-5.13Q9.17-5.59 9.29-6.06L9.29-6.06Q9.52-7.18 9.57-8.59L9.57-8.59Q9.57-10.32 9.61-13.75L9.61-13.75Q9.64-15.20 9.66-17.18Q9.68-19.16 9.73-21.73Q9.78-24.29 9.84-27.50Q9.89-30.71 9.97-34.65L9.97-34.65Q8.93-34.54 7.91-34.48Q6.89-34.42 5.77-34.46L5.77-34.46L10.15-37.35Q11.23-37.21 12.38-37.16Q13.53-37.11 14.65-37.11L14.65-37.11Q16.72-37.11 18.46-37.28Q20.21-37.44 21.92-37.44L21.92-37.44Q23.47-37.44 25.30-37.20Q27.14-36.95 29.00-36.30Q30.85-35.66 32.58-34.58Q34.32-33.50 35.65-31.83Q36.99-30.15 37.80-27.82Q38.61-25.49 38.61-22.37ZM13.50-10.02L13.50-10.02Q13.43-9.29 13.20-8.61L13.20-8.61Q13.01-8.03 12.65-7.37Q12.29-6.71 11.68-6.25L11.68-6.25Q14.93-6.08 17.04-6.04Q19.15-5.99 20.42-5.99L20.42-5.99Q23.65-5.99 26.23-7.15Q28.81-8.31 30.60-10.29Q32.39-12.27 33.34-14.89Q34.29-17.52 34.29-20.45L34.29-20.45Q34.29-23.33 33.53-25.57Q32.77-27.81 31.50-29.48Q30.24-31.16 28.62-32.31Q27.00-33.46 25.30-34.17Q23.61-34.89 21.94-35.20Q20.28-35.52 18.94-35.52L18.94-35.52Q17.56-35.52 16.36-35.43Q15.17-35.33 14.04-35.19L14.04-35.19Q13.97-30.93 13.91-27.59Q13.86-24.25 13.81-21.68Q13.76-19.11 13.72-17.25Q13.67-15.39 13.64-14.10L13.64-14.10Q13.55-11.07 13.50-10.02ZM68.00-11.57L68.00-9.60Q66.87-8.61 66.14-7.95Q65.42-7.28 64.95-6.88L64.95-6.88Q64.41-6.41 64.11-6.11L64.11-6.11Q63.75-5.75 63.16-5.23Q62.56-4.70 61.87-4.21Q61.18-3.71 60.46-3.38Q59.75-3.04 59.16-3.08L59.16-3.08Q58.20-3.13 57.77-4.78Q57.33-6.43 57.33-9.27L57.33-9.27L57.33-11.52Q56.51-10.42 55.77-9.54Q55.04-8.66 54.47-8.05L54.47-8.05Q53.82-7.32 53.25-6.76L53.25-6.76Q52.08-5.61 51.07-4.85Q50.07-4.09 49.22-3.67Q48.38-3.25 47.72-3.12Q47.07-2.99 46.57-3.08L46.57-3.08Q46.11-3.18 45.71-3.53Q45.31-3.88 45.03-4.63Q44.75-5.38 44.59-6.59Q44.44-7.79 44.47-9.60L44.47-9.60Q44.49-11.40 44.57-13.20Q44.65-14.99 44.73-16.61Q44.82-18.22 44.92-19.57Q45.03-20.92 45.10-21.83L45.10-21.83Q45.17-23.00 44.85-23.72Q44.54-24.43 43.74-24.43L43.74-24.43Q43.27-24.43 42.68-24.16Q42.10-23.89 41.35-23.29L41.35-23.29Q41.91-23.82 42.66-24.59Q43.41-25.35 44.24-26.05Q45.07-26.75 45.92-27.25Q46.76-27.74 47.49-27.74L47.49-27.74Q48.05-27.74 48.34-27.45Q48.64-27.15 48.77-26.73Q48.89-26.31 48.91-25.83Q48.92-25.35 48.92-25.00L48.92-25.00Q48.92-23.31 48.80-21.66Q48.68-20.00 48.54-18.38Q48.40-16.75 48.29-15.13Q48.17-13.51 48.17-11.89L48.17-11.89Q48.17-10.77 48.27-9.73Q48.38-8.68 48.66-7.91Q48.94-7.14 49.42-6.70Q49.90-6.27 50.65-6.34L50.65-6.34Q51.64-6.43 52.61-7.16Q53.58-7.89 54.45-9.05Q55.32-10.21 56.02-11.68Q56.72-13.16 57.14-14.73L57.14-14.73Q57.19-14.92 57.26-15.18L57.26-15.18Q57.31-15.39 57.39-15.64Q57.47-15.90 57.57-16.23L57.57-16.23Q57.71-18.50 57.95-20.71Q58.20-22.91 58.53-25.11L58.53-25.11L63.10-28.37Q62.23-24.08 61.73-20.14Q61.22-16.21 61.22-12.29L61.22-12.29Q61.22-10.44 61.40-9.29Q61.57-8.14 61.89-7.54Q62.21-6.93 62.65-6.79Q63.10-6.64 63.61-6.81L63.61-6.81Q64.08-7.02 64.72-7.61L64.72-7.61Q65.25-8.10 66.07-9.04Q66.89-9.97 68.00-11.57L68.00-11.57ZM41.21-23.19L41.35-23.29L41.21-23.19ZM74.93-26.64L74.93-26.64Q75.10-26.21 75.14-25.39Q75.19-24.57 75.19-23.52L75.19-23.52Q75.19-22.77 75.17-21.93Q75.14-21.08 75.10-20.21L75.10-20.21Q75.78-21.20 76.57-22.24Q77.37-23.29 78.25-24.23Q79.13-25.18 80.09-25.98Q81.05-26.78 82.07-27.28Q83.09-27.79 84.16-27.94Q85.22-28.09 86.32-27.74L86.32-27.74Q86.93-27.55 87.32-27.18Q87.71-26.80 87.94-26.25Q88.18-25.70 88.26-25.00Q88.34-24.29 88.34-23.47L88.34-23.47Q88.34-21.64 88.20-19.86Q88.06-18.08 87.88-16.34Q87.71-14.59 87.57-12.86Q87.43-11.12 87.43-9.41L87.43-9.41Q87.43-8.24 87.63-7.56Q87.82-6.88 88.34-6.76L88.34-6.76Q88.86-6.79 89.49-7.21L89.49-7.21Q90.03-7.54 90.78-8.29Q91.53-9.04 92.42-10.42L92.42-10.42L92.23-8.64Q91.60-7.93 90.77-6.95Q89.93-5.96 89.03-5.09Q88.13-4.21 87.20-3.62Q86.28-3.04 85.46-3.13L85.46-3.13Q84.57-3.25 84.00-4.15Q83.44-5.05 83.44-7.00L83.44-7.00Q83.44-7.96 83.51-9.26Q83.58-10.56 83.70-11.99Q83.82-13.42 83.95-14.89Q84.07-16.37 84.20-17.71Q84.33-19.04 84.44-20.16Q84.54-21.27 84.59-21.97L84.59-21.97Q84.64-22.68 84.46-23.25Q84.29-23.82 83.92-24.25Q83.56-24.67 83.07-24.89Q82.57-25.11 81.99-25.11L81.99-25.11Q81.36-25.11 80.65-24.80Q79.95-24.48 79.22-23.80L79.22-23.80Q78.87-23.45 78.37-22.83Q77.86-22.21 77.28-21.21Q76.69-20.21 76.05-18.83Q75.40-17.45 74.79-15.60L74.79-15.60Q74.75-15.06 74.72-14.54Q74.70-14.03 74.70-13.58L74.70-13.58Q74.65-12.46 74.56-11.19L74.56-11.19Q74.49-10.11 74.39-8.75Q74.30-7.39 74.18-5.99L74.18-5.99L70.48-2.73Q70.74-8.43 70.94-12.14Q71.14-15.86 71.25-18.01L71.25-18.01Q71.39-20.54 71.49-21.88L71.49-21.88Q71.56-23.45 71.07-24.11Q70.57-24.76 69.85-24.76L69.85-24.76Q69.29-24.76 68.64-24.41Q68.00-24.06 67.41-23.52L67.41-23.52Q68.00-24.18 68.71-24.93Q69.43-25.68 70.22-26.31Q71.02-26.94 71.85-27.36Q72.68-27.79 73.50-27.79L73.50-27.79Q74.02-27.79 74.38-27.52Q74.75-27.25 74.93-26.64ZM109.55-26.17L109.55-26.17Q109.32-25.91 108.87-25.49L108.87-25.49Q108.47-25.14 107.78-24.59Q107.09-24.04 105.97-23.29L105.97-23.29Q106.25-23.54 106.27-23.75Q106.29-23.96 106.22-24.13L106.22-24.13Q106.13-24.32 105.92-24.48L105.92-24.48Q105.54-24.69 104.71-24.82Q103.88-24.95 102.94-24.95L102.94-24.95Q102.14-24.95 101.44-24.84Q100.74-24.74 100.29-24.48L100.29-24.48Q99.87-24.22 99.39-23.24Q98.91-22.25 98.51-20.85Q98.11-19.44 97.86-17.77Q97.60-16.09 97.60-14.45L97.60-14.45Q97.60-13.68 97.68-12.76Q97.76-11.85 97.95-10.95Q98.14-10.04 98.47-9.21Q98.79-8.38 99.29-7.75Q99.78-7.11 100.43-6.76Q101.09-6.41 101.98-6.48L101.98-6.48Q102.54-6.57 103.25-6.97L103.25-6.97Q103.83-7.30 104.62-7.99Q105.40-8.68 106.29-9.93L106.29-9.93L108.26-10.51Q107.02-9.11 106.04-8.11Q105.05-7.11 104.37-6.48L104.37-6.48Q103.57-5.73 102.94-5.29L102.94-5.29Q102.17-4.75 101.49-4.31Q100.81-3.88 100.16-3.59Q99.52-3.29 98.89-3.18Q98.25-3.06 97.60-3.13L97.60-3.13Q97.04-3.18 96.39-3.76Q95.75-4.35 95.18-5.39Q94.62-6.43 94.25-7.91Q93.87-9.39 93.87-11.24L93.87-11.24Q93.87-13.25 94.26-15.32Q94.64-17.38 95.42-19.29Q96.19-21.20 97.39-22.83Q98.58-24.46 100.20-25.58L100.20-25.58Q101.04-26.17 102.04-26.61Q103.04-27.06 104.03-27.34Q105.03-27.62 105.95-27.74Q106.88-27.86 107.58-27.83L107.58-27.83Q108.99-27.76 109.49-27.30Q110.00-26.85 109.55-26.17ZM133.69-11.47L133.69-9.64Q133.48-9.32 133.11-8.86Q132.73-8.40 132.36-7.96L132.36-7.96Q131.93-7.44 131.44-6.90L131.44-6.90Q130.83-6.15 130.13-5.45Q129.43-4.75 128.73-4.20Q128.04-3.64 127.39-3.32Q126.73-2.99 126.22-3.01L126.22-3.01Q125.23-3.06 124.86-4.22Q124.48-5.38 124.48-7.58L124.48-7.58Q124.48-8.75 124.55-10.11Q124.62-11.47 124.76-13.16L124.76-13.16Q124.25-12.34 123.78-11.66Q123.31-10.98 122.93-10.46L122.93-10.46Q122.51-9.86 122.09-9.36L122.09-9.36Q120.85-7.84 119.69-6.67Q118.53-5.50 117.55-4.70Q116.58-3.90 115.84-3.48Q115.11-3.06 114.68-3.01L114.68-3.01Q114.26-2.96 113.66-3.29Q113.07-3.62 112.53-4.56Q111.99-5.50 111.60-7.18Q111.22-8.87 111.24-11.57L111.24-11.57Q111.26-14.26 111.81-16.31Q112.36-18.36 113.24-19.90Q114.12-21.43 115.20-22.55Q116.28-23.66 117.33-24.48L117.33-24.48Q119.51-26.14 121.52-27.14Q123.52-28.14 125.44-28.18L125.44-28.18Q126.07-28.21 126.68-28.16L126.68-28.16Q127.22-28.11 127.84-28.01Q128.47-27.90 129.03-27.69L129.03-27.69L129.71-28.23Q129.57-27.57 129.41-26.45Q129.26-25.32 129.12-23.92Q128.98-22.51 128.84-20.92Q128.70-19.32 128.59-17.72Q128.49-16.11 128.39-14.60Q128.30-13.09 128.24-11.85Q128.18-10.61 128.17-9.74Q128.16-8.87 128.18-8.54L128.18-8.54Q128.30-7.21 128.80-6.71Q129.31-6.22 130.20-6.81L130.20-6.81Q130.55-7.09 131.07-7.70L131.07-7.70Q131.51-8.21 132.16-9.12Q132.80-10.02 133.69-11.47L133.69-11.47ZM125.21-19.07L125.68-24.57Q123.45-24.86 122.02-24.86L122.02-24.86Q120.50-24.86 119.37-24.36Q118.25-23.87 117.45-23.04Q116.65-22.21 116.14-21.12Q115.62-20.03 115.33-18.81Q115.04-17.59 114.93-16.32Q114.82-15.06 114.82-13.91L114.82-13.91Q114.82-13.51 114.87-12.83Q114.92-12.15 115.05-11.38Q115.18-10.61 115.38-9.81Q115.57-9.01 115.89-8.37Q116.21-7.72 116.63-7.31Q117.05-6.90 117.61-6.90L117.61-6.90Q118.22-6.90 119.10-7.57Q119.98-8.24 121.22-9.83L121.22-9.83Q121.95-10.82 122.68-12.20L122.68-12.20Q123.29-13.37 123.98-15.08Q124.67-16.79 125.21-19.07L125.21-19.07ZM141.61-26.64L141.61-26.64Q141.78-26.21 141.82-25.39Q141.87-24.57 141.87-23.52L141.87-23.52Q141.87-22.77 141.85-21.93Q141.82-21.08 141.78-20.21L141.78-20.21Q142.46-21.20 143.25-22.24Q144.05-23.29 144.93-24.23Q145.81-25.18 146.77-25.98Q147.73-26.78 148.75-27.28Q149.77-27.79 150.84-27.94Q151.90-28.09 153.00-27.74L153.00-27.74Q153.61-27.55 154.00-27.18Q154.39-26.80 154.62-26.25Q154.86-25.70 154.94-25.00Q155.02-24.29 155.02-23.47L155.02-23.47Q155.02-21.64 154.88-19.86Q154.74-18.08 154.56-16.34Q154.39-14.59 154.25-12.86Q154.11-11.12 154.11-9.41L154.11-9.41Q154.11-8.24 154.30-7.56Q154.50-6.88 155.02-6.76L155.02-6.76Q155.54-6.79 156.17-7.21L156.17-7.21Q156.71-7.54 157.46-8.29Q158.21-9.04 159.10-10.42L159.10-10.42L158.91-8.64Q158.28-7.93 157.45-6.95Q156.61-5.96 155.71-5.09Q154.81-4.21 153.88-3.62Q152.96-3.04 152.14-3.13L152.14-3.13Q151.25-3.25 150.68-4.15Q150.12-5.05 150.12-7.00L150.12-7.00Q150.12-7.96 150.19-9.26Q150.26-10.56 150.38-11.99Q150.50-13.42 150.63-14.89Q150.75-16.37 150.88-17.71Q151.01-19.04 151.12-20.16Q151.22-21.27 151.27-21.97L151.27-21.97Q151.32-22.68 151.14-23.25Q150.97-23.82 150.60-24.25Q150.24-24.67 149.75-24.89Q149.25-25.11 148.67-25.11L148.67-25.11Q148.04-25.11 147.33-24.80Q146.63-24.48 145.90-23.80L145.90-23.80Q145.55-23.45 145.05-22.83Q144.54-22.21 143.96-21.21Q143.37-20.21 142.73-18.83Q142.08-17.45 141.47-15.60L141.47-15.60Q141.43-15.06 141.40-14.54Q141.38-14.03 141.38-13.58L141.38-13.58Q141.33-12.46 141.24-11.19L141.24-11.19Q141.17-10.11 141.07-8.75Q140.98-7.39 140.86-5.99L140.86-5.99L137.16-2.73Q137.42-8.43 137.62-12.14Q137.82-15.86 137.93-18.01L137.93-18.01Q138.07-20.54 138.17-21.88L138.17-21.88Q138.24-23.45 137.75-24.11Q137.25-24.76 136.53-24.76L136.53-24.76Q135.97-24.76 135.32-24.41Q134.68-24.06 134.09-23.52L134.09-23.52Q134.68-24.18 135.39-24.93Q136.11-25.68 136.90-26.31Q137.70-26.94 138.53-27.36Q139.36-27.79 140.18-27.79L140.18-27.79Q140.70-27.79 141.06-27.52Q141.43-27.25 141.61-26.64ZM191.56-21.93L191.56-21.93Q191.35-21.83 190.93-21.57L190.93-21.57Q190.55-21.34 189.86-20.88Q189.17-20.43 188.04-19.63L188.04-19.63Q188.23-19.98 188.03-20.17Q187.83-20.36 187.50-20.43L187.50-20.43Q187.11-20.52 186.57-20.50L186.57-20.50Q185.72-20.43 184.14-20.33Q182.56-20.24 180.57-20.17L180.57-20.17Q180.57-16.42 180.52-14.06Q180.47-11.71 180.45-10.39L180.45-10.39Q180.40-8.85 180.36-8.12L180.36-8.12Q180.31-7.65 180.07-7.21L180.07-7.21Q179.89-6.81 179.48-6.36Q179.07-5.92 178.34-5.57L178.34-5.57L188.96-5.57Q189.71-5.57 190.48-5.66L190.48-5.66Q191.14-5.73 191.89-5.89Q192.64-6.06 193.32-6.39L193.32-6.39Q192.14-5.29 191.00-4.70Q189.85-4.11 188.89-3.86L188.89-3.86Q187.76-3.55 186.75-3.50L186.75-3.50Q184.46-3.50 182.42-3.48Q180.38-3.46 178.74-3.39Q177.10-3.32 175.94-3.21Q174.78-3.11 174.26-2.96L174.26-2.96Q174.99-3.69 175.40-4.39Q175.81-5.10 176.02-5.96Q176.23-6.83 176.29-7.92Q176.35-9.01 176.32-10.51L176.32-10.51L176.32-20.12Q175.64-20.12 175.00-20.14Q174.36-20.17 173.75-20.21L173.75-20.21L176.32-21.55Q176.32-22.82 176.31-24.21Q176.30-25.61 176.30-27.20Q176.30-28.79 176.29-30.63Q176.28-32.47 176.28-34.65L176.28-34.65Q175.22-34.65 174.29-34.68Q173.35-34.70 172.55-34.75L172.55-34.75L176.91-37.07Q181.36-37.07 184.52-37.13Q187.67-37.18 189.73-37.25L189.73-37.25Q192.12-37.35 193.72-37.44L193.72-37.44Q194.51-37.44 194.77-37.31Q195.03-37.18 194.98-37.03Q194.93-36.88 194.70-36.71Q194.47-36.55 194.28-36.48L194.28-36.48Q194.09-36.39 193.57-36.08L193.57-36.08Q193.13-35.82 192.32-35.27Q191.51-34.72 190.11-33.79L190.11-33.79Q190.57-34.30 190.50-34.55Q190.43-34.79 190.18-34.91L190.18-34.91Q189.87-35.03 189.33-35.03L189.33-35.03Q188.89-34.98 188.00-34.95Q187.11-34.91 185.92-34.86Q184.74-34.82 183.36-34.77Q181.97-34.72 180.52-34.70L180.52-34.70Q180.54-30.95 180.55-27.97Q180.57-25.00 180.57-22.51L180.57-22.51Q182.96-22.54 184.87-22.59Q186.78-22.65 188.14-22.72L188.14-22.72Q189.73-22.82 190.97-22.89L190.97-22.89Q191.75-22.91 192.00-22.79Q192.26-22.68 192.22-22.51Q192.17-22.35 191.95-22.17Q191.72-22.00 191.56-21.93ZM209.75-12.34L209.32-9.69Q208.86-9.08 208.28-8.34Q207.71-7.61 207.05-6.83Q206.39-6.06 205.67-5.34Q204.94-4.63 204.16-4.08Q203.37-3.53 202.55-3.22Q201.73-2.92 200.91-2.96L200.91-2.96Q200.21-3.04 199.76-3.61Q199.32-4.18 199.06-5.09Q198.80-5.99 198.73-7.16Q198.66-8.33 198.71-9.60L198.71-9.60Q198.73-10.23 198.82-11.84Q198.92-13.44 199.05-15.64Q199.18-17.85 199.33-20.47Q199.48-23.10 199.62-25.79Q199.76-28.49 199.90-31.08Q200.04-33.67 200.15-35.78Q200.25-37.89 200.32-39.35Q200.39-40.82 200.39-41.29L200.39-41.29Q200.39-42.55 200.20-43.25Q200.00-43.96 199.20-43.96L199.20-43.96Q198.43-43.96 196.93-43.25L196.93-43.25Q197.96-44.14 198.71-44.78Q199.46-45.41 199.95-45.81L199.95-45.81Q200.54-46.25 200.91-46.56L200.91-46.56Q201.61-47.14 202.46-47.14L202.46-47.14Q203.18-47.14 203.71-46.61Q204.24-46.07 204.14-44.92L204.14-44.92Q204.12-44.47 204.04-43.01Q203.96-41.54 203.86-39.40Q203.77-37.25 203.64-34.62Q203.51-31.98 203.39-29.18Q203.28-26.38 203.15-23.60Q203.02-20.82 202.93-18.43Q202.83-16.04 202.77-14.19Q202.72-12.34 202.69-11.38L202.69-11.38Q202.67-10.07 202.83-9.13Q203.00-8.19 203.28-7.61Q203.56-7.02 203.96-6.75Q204.36-6.48 204.80-6.48L204.80-6.48Q205.34-6.48 205.88-6.81Q206.42-7.14 206.91-7.65Q207.40-8.17 207.85-8.82Q208.29-9.48 208.67-10.14Q209.04-10.79 209.31-11.38Q209.58-11.96 209.75-12.34L209.75-12.34ZM222.94-12.34L222.52-9.69Q222.05-9.08 221.48-8.34Q220.90-7.61 220.25-6.83Q219.59-6.06 218.86-5.34Q218.14-4.63 217.35-4.08Q216.57-3.53 215.75-3.22Q214.93-2.92 214.11-2.96L214.11-2.96Q213.40-3.04 212.96-3.61Q212.51-4.18 212.25-5.09Q212.00-5.99 211.93-7.16Q211.86-8.33 211.90-9.60L211.90-9.60Q211.93-10.23 212.02-11.84Q212.11-13.44 212.24-15.64Q212.37-17.85 212.52-20.47Q212.68-23.10 212.82-25.79Q212.96-28.49 213.10-31.08Q213.24-33.67 213.34-35.78Q213.45-37.89 213.52-39.35Q213.59-40.82 213.59-41.29L213.59-41.29Q213.59-42.55 213.39-43.25Q213.19-43.96 212.39-43.96L212.39-43.96Q211.62-43.96 210.12-43.25L210.12-43.25Q211.15-44.14 211.90-44.78Q212.65-45.41 213.14-45.81L213.14-45.81Q213.73-46.25 214.11-46.56L214.11-46.56Q214.81-47.14 215.65-47.14L215.65-47.14Q216.38-47.14 216.91-46.61Q217.43-46.07 217.34-44.92L217.34-44.92Q217.32-44.47 217.23-43.01Q217.15-41.54 217.06-39.40Q216.97-37.25 216.84-34.62Q216.71-31.98 216.59-29.18Q216.47-26.38 216.34-23.60Q216.22-20.82 216.12-18.43Q216.03-16.04 215.97-14.19Q215.91-12.34 215.89-11.38L215.89-11.38Q215.86-10.07 216.03-9.13Q216.19-8.19 216.47-7.61Q216.75-7.02 217.15-6.75Q217.55-6.48 218.00-6.48L218.00-6.48Q218.54-6.48 219.07-6.81Q219.61-7.14 220.11-7.65Q220.60-8.17 221.04-8.82Q221.49-9.48 221.86-10.14Q222.24-10.79 222.51-11.38Q222.78-11.96 222.94-12.34L222.94-12.34ZM235.32-10.84L235.32-10.84L234.80-8.92Q234.40-8.52 233.83-7.92Q233.25-7.32 232.56-6.66Q231.87-5.99 231.12-5.33Q230.37-4.68 229.64-4.16Q228.92-3.64 228.25-3.35Q227.58-3.06 227.07-3.13L227.07-3.13Q226.27-3.25 225.93-4.29Q225.59-5.33 225.59-7.68L225.59-7.68Q225.59-8.10 225.63-9.05Q225.66-10.00 225.72-11.26Q225.78-12.53 225.86-14.04Q225.94-15.55 226.04-17.09Q226.13-18.62 226.23-20.11Q226.34-21.60 226.46-22.84L226.46-22.84Q226.53-23.66 226.13-24.02Q225.73-24.39 225.14-24.39L225.14-24.39Q224.65-24.39 224.11-24.15Q223.57-23.92 223.13-23.52L223.13-23.52Q224.07-24.43 224.79-25.05Q225.52-25.68 226.04-26.07L226.04-26.07Q226.64-26.52 227.07-26.82L227.07-26.82Q227.65-27.18 228.20-27.19Q228.75-27.20 229.19-26.92Q229.62-26.64 229.87-26.10Q230.11-25.56 230.09-24.81L230.09-24.81Q230.07-24.29 229.98-23.16Q229.90-22.02 229.80-20.57Q229.69-19.11 229.56-17.50Q229.43-15.88 229.33-14.38Q229.22-12.88 229.14-11.66Q229.06-10.44 229.04-9.79L229.04-9.79Q228.99-8.45 229.33-7.63Q229.67-6.81 230.42-6.81L230.42-6.81Q230.98-6.81 231.72-7.30Q232.46-7.79 233.18-8.45Q233.91-9.11 234.48-9.79Q235.06-10.46 235.32-10.84ZM227.51-42.11L231.33-45.41Q231.38-44.26 231.27-43.36Q231.17-42.46 231.03-41.82L231.03-41.82Q230.86-41.07 230.63-40.51L230.63-40.51Q230.35-39.95 229.76-39.29L229.76-39.29Q229.27-38.73 228.41-37.99Q227.56-37.25 226.20-36.43L226.20-36.43Q226.64-37.32 226.90-38.32Q227.16-39.32 227.30-40.16L227.30-40.16Q227.47-41.14 227.51-42.11L227.51-42.11ZM252.45-21.60L252.45-21.60Q252.52-19.77 252.33-18.01Q252.14-16.25 251.78-14.72Q251.42-13.18 250.89-11.93Q250.36-10.68 249.75-9.88L249.75-9.88Q249.36-9.34 248.64-8.63Q247.93-7.91 247.04-7.15Q246.14-6.39 245.14-5.64Q244.13-4.89 243.14-4.31Q242.16-3.74 241.26-3.38Q240.36-3.01 239.68-3.01L239.68-3.01Q238.88-3.01 238.29-3.42Q237.71-3.83 237.29-4.50Q236.86-5.17 236.58-6Q236.30-6.83 236.14-7.66Q235.97-8.50 235.91-9.26Q235.86-10.02 235.86-10.56L235.86-10.56Q235.86-12.62 236.23-14.65Q236.61-16.68 237.39-18.50Q238.18-20.33 239.37-21.89Q240.57-23.45 242.23-24.57L242.23-24.57Q243.31-25.30 244.18-25.90Q245.04-26.50 245.77-26.89Q246.50-27.29 247.09-27.52Q247.69-27.74 248.23-27.74L248.23-27.74Q248.75-27.74 249.44-27.46Q250.13-27.18 250.77-26.48Q251.42-25.79 251.89-24.61Q252.36-23.43 252.45-21.60ZM248.75-17.71L248.75-17.71Q248.75-18.69 248.61-19.96Q248.47-21.22 248.04-22.32Q247.62-23.43 246.86-24.19Q246.10-24.95 244.83-24.95L244.83-24.95Q244.32-24.95 243.77-24.73Q243.22-24.50 242.75-24.04L242.75-24.04Q241.81-23.10 241.23-21.89Q240.66-20.68 240.33-19.35Q240.00-18.01 239.89-16.65Q239.77-15.29 239.77-14.07L239.77-14.07Q239.77-13.44 239.79-12.61Q239.82-11.78 239.93-10.90Q240.05-10.02 240.27-9.15Q240.50-8.29 240.88-7.62Q241.27-6.95 241.86-6.53Q242.44-6.11 243.29-6.11L243.29-6.11Q244.41-6.11 245.25-6.75Q246.10-7.39 246.71-8.43Q247.32-9.46 247.70-10.75Q248.09-12.04 248.32-13.32Q248.56-14.61 248.65-15.77Q248.75-16.93 248.75-17.71ZM269.84-11.33L269.84-11.33L269.35-8.92Q268.81-8.47 268.09-7.80Q267.38-7.14 266.55-6.41Q265.72-5.68 264.82-4.99Q263.93-4.30 263.04-3.82Q262.15-3.34 261.30-3.14Q260.44-2.94 259.72-3.22L259.72-3.22Q259.25-3.39 258.91-3.71Q258.57-4.04 258.34-4.65Q258.12-5.26 258.00-6.21Q257.89-7.16 257.89-8.54L257.89-8.54Q257.89-12.71 258.06-16.64Q258.24-20.57 258.50-24.43L258.50-24.43Q257.51-24.36 256.56-24.19Q255.61-24.01 255.10-23.61L255.10-23.61Q256.57-24.93 257.42-26.04Q258.26-27.15 258.71-28.02L258.71-28.02L258.99-32.31L263.02-35.66L262.53-27.27Q263.04-27.22 263.49-27.22Q263.93-27.22 264.36-27.22L264.36-27.22Q266.39-27.22 268.14-27.59Q269.89-27.95 271.50-28.56L271.50-28.56Q270.00-27.36 268.63-26.61Q267.26-25.86 266.09-25.41Q264.92-24.95 263.96-24.75Q263.00-24.55 262.34-24.48L262.34-24.48Q262.11-20.26 261.98-17.65Q261.85-15.04 261.78-13.61L261.78-13.61Q261.68-11.92 261.68-11.14L261.68-11.14Q261.61-10.00 261.82-9.11Q262.04-8.21 262.47-7.63Q262.90-7.04 263.52-6.81Q264.14-6.57 264.89-6.76L264.89-6.76Q265.48-6.95 266.25-7.51L266.25-7.51Q266.91-7.98 267.81-8.88Q268.72-9.79 269.84-11.33ZM254.96-23.52L255.10-23.61L254.96-23.52Z"></path></g></g></svg>